<?xml version="1.0" encoding="iso-8859-1"?>
<!-- Generator: Adobe Illustrator 16.0.0, SVG Export Plug-In . SVG Version: 6.00 Build 0)  -->
<!DOCTYPE svg PUBLIC "-//W3C//DTD SVG 1.1//EN" "http://www.w3.org/Graphics/SVG/1.1/DTD/svg11.dtd">
<svg xmlns="http://www.w3.org/2000/svg" xmlns:xlink="http://www.w3.org/1999/xlink" version="1.1" id="Capa_1" x="0px" y="0px" width="64px" height="64px" viewBox="0 0 422.93 422.93" style="enable-background:new 0 0 422.93 422.93;" xml:space="preserve">
<g>
	<g>
		<path d="M382.93,100.232h-94.965v-0.833c0-13.808-11.193-25-25-25h-17.775c-0.524-13.343-11.504-24-24.975-24h-17.5    c-13.471,0-24.449,10.657-24.975,24h-17.775c-13.807,0-25,11.192-25,25v0.833H40c-22.056,0-40,17.944-40,40V332.53    c0,22.057,17.944,40,40,40h342.93c22.055,0,40-17.943,40-40V140.232C422.93,118.176,404.984,100.232,382.93,100.232z     M211.465,74.714c8.422,0,15.25,6.827,15.25,15.25s-6.828,15.25-15.25,15.25s-15.25-6.827-15.25-15.25    S203.043,74.714,211.465,74.714z M392.93,332.529c0,5.515-4.486,10-10,10H40c-5.514,0-10-4.485-10-10V140.232    c0-5.514,4.486-10,10-10h95.518v0.065c0,13.808,11.193,25,25,25h101.895c13.807,0,25-11.192,25-25v-0.065h95.518    c5.515,0,10,4.486,10,10L392.93,332.529L392.93,332.529z" fill="#000000"/>
		<path d="M353.165,184.131H215.099c-5.522,0-10,4.477-10,10s4.478,10,10,10h138.066c5.521,0,10-4.477,10-10    S358.688,184.131,353.165,184.131z" fill="#000000"/>
		<path d="M353.165,234.132H215.099c-5.522,0-10,4.477-10,10c0,5.522,4.478,10,10,10h138.066c5.521,0,10-4.478,10-10    C363.165,238.608,358.688,234.132,353.165,234.132z" fill="#000000"/>
		<path d="M353.165,284.132H215.099c-5.522,0-10,4.477-10,10c0,5.522,4.478,10,10,10h138.066c5.521,0,10-4.478,10-10    C363.165,288.608,358.688,284.132,353.165,284.132z" fill="#000000"/>
		<path d="M154.844,264.318l-17.537-8.074l-8.424-7.104l-13.059,12.988l6.01,40.172c0.021,0.146-0.016,0.297-0.104,0.418    l-6.716,9.189c-0.106,0.146-0.276,0.232-0.458,0.232c-0.182,0-0.352-0.086-0.459-0.232l-6.715-9.189    c-0.088-0.121-0.125-0.271-0.104-0.418l6.01-40.174l-13.057-12.986l-8.424,7.104l-17.538,8.074    c-2.595,1.063-5.655,3.222-6.441,5.496c0,0-19.063,45.383-8.724,45.383h110.903c10.339,0-8.723-45.383-8.723-45.383    C160.156,267.113,157.439,265.384,154.844,264.318z" fill="#000000"/>
		<path d="M114.557,248.884c17.937,0,31.32-16.711,31.625-44.734c0.195-19.447-9.066-31.084-31.625-31.084    c-22.559,0-31.822,11.637-31.625,31.084C83.236,232.173,96.621,248.884,114.557,248.884z" fill="#000000"/>
	</g>
</g>
<g>
</g>
<g>
</g>
<g>
</g>
<g>
</g>
<g>
</g>
<g>
</g>
<g>
</g>
<g>
</g>
<g>
</g>
<g>
</g>
<g>
</g>
<g>
</g>
<g>
</g>
<g>
</g>
<g>
</g>
</svg>
