<?xml version="1.0" encoding="iso-8859-1"?>
<!-- Generator: Adobe Illustrator 16.0.0, SVG Export Plug-In . SVG Version: 6.00 Build 0)  -->
<!DOCTYPE svg PUBLIC "-//W3C//DTD SVG 1.1//EN" "http://www.w3.org/Graphics/SVG/1.1/DTD/svg11.dtd">
<svg xmlns="http://www.w3.org/2000/svg" xmlns:xlink="http://www.w3.org/1999/xlink" version="1.1" id="Capa_1" x="0px" y="0px" width="64px" height="64px" viewBox="0 0 94.012 94.012" style="enable-background:new 0 0 94.012 94.012;" xml:space="preserve">
<g>
	<g>
		<path d="M92.324,55.304l-6.394-6.393c-1.079-1.081-2.545-1.689-4.073-1.689c-1.527,0-2.992,0.607-4.074,1.689l-8.856,8.857    c-0.825-0.946-1.849-1.656-2.97-2.117l-10.297-4.74l-4.947-4.172l-8.502,8.455l-8.523-8.455l-4.947,4.172l-10.298,4.74    c-1.523,0.627-2.875,1.707-3.781,3.229L0,83.388h48.164l8.039,8.039c1.078,1.08,2.545,1.688,4.072,1.688    c1.528,0,2.994-0.607,4.076-1.688l8.036-8.039H84.4l-4.496-7.516l12.42-12.422C94.574,61.2,94.574,57.554,92.324,55.304z     M60.213,86.872L40.885,67.544l6.393-6.392l12.936,12.937l21.582-21.584l6.392,6.393L60.213,86.872z" fill="#000000"/>
		<path d="M42.145,47.759v0.004c0.009,0,0.02-0.002,0.029-0.002c0.005,0,0.013,0.002,0.02,0.002c0.001,0,0.004,0,0.007,0    c0.003,0,0.006,0,0.007,0c0.007,0,0.015-0.002,0.02-0.002c0.01,0,0.02,0.002,0.029,0.002v-0.004    c12.005,0.183,19.302-10.324,19.49-27.646c0.12-12.017-7.332-18.888-19.47-19.212V0.897c-0.019,0-0.032,0.002-0.051,0.002V0.897    c-0.011,0-0.019,0-0.026,0.002c-0.008-0.002-0.018-0.002-0.026-0.002v0.002c-0.019,0-0.033-0.002-0.049-0.002v0.004    C29.987,1.225,22.533,8.096,22.654,20.113C22.843,37.436,30.14,47.942,42.145,47.759z" fill="#000000"/>
	</g>
</g>
<g>
</g>
<g>
</g>
<g>
</g>
<g>
</g>
<g>
</g>
<g>
</g>
<g>
</g>
<g>
</g>
<g>
</g>
<g>
</g>
<g>
</g>
<g>
</g>
<g>
</g>
<g>
</g>
<g>
</g>
</svg>
